<?xml version="1.0" encoding="utf-8"?>
<!-- Generator: Adobe Illustrator 18.1.1, SVG Export Plug-In . SVG Version: 6.00 Build 0)  -->
<svg version="1.1" id="Layer_1" xmlns="http://www.w3.org/2000/svg" xmlns:xlink="http://www.w3.org/1999/xlink" x="0px" y="0px"
	 viewBox="0 0 600 600" enable-background="new 0 0 600 600" xml:space="preserve">
<rect x="0" y="0" fill="#FFFFFF" width="600" height="600"/>
<path fill="#282B30" d="M299.8,125.2c28.9,0,54.8,9.9,73,27.8c18.3,18.1,28,42.9,28,71.7c0,28.8-9.7,53.6-28,71.7
	c-18.2,17.9-44.1,27.8-73,27.8c-59.3,0-100.6-40.9-100.6-99.5C199.2,166.1,240.6,125.2,299.8,125.2 M299.8,88.5
	c-79.3,0-137.3,56.8-137.3,136.1c0,79.3,58,136.1,137.3,136.1c79.7,0,137.7-56.8,137.7-136.1C437.5,145.3,379.5,88.5,299.8,88.5
	L299.8,88.5z"/>
<path fill="#282B30" d="M116.7,600v-52.5c0-71.6,58.2-129.8,129.8-129.8h107.1c71.6,0,129.8,58.2,129.8,129.8V600H520v-52.5
	c0-91.9-74.5-166.4-166.4-166.4H246.4C154.5,381,80,455.5,80,547.5V600H116.7z"/>
</svg>
