<?xml version="1.0" encoding="utf-8"?>
<!-- Generator: Adobe Illustrator 18.1.1, SVG Export Plug-In . SVG Version: 6.00 Build 0)  -->
<svg version="1.1" id="Layer_1" xmlns="http://www.w3.org/2000/svg" xmlns:xlink="http://www.w3.org/1999/xlink" x="0px" y="0px"
	 viewBox="0 0 228.1 18" enable-background="new 0 0 228.1 18" xml:space="preserve">
<g>
	<path fill="#FFFFFF" d="M0,17.7V0.3h12.3v3.3H3.7v3.7h8.4v3.3H3.7v7.2H0z"/>
	<path fill="#34373D" d="M25.1,17.7V0.3h3.7v17.4H25.1z"/>
	<path fill="#34373D" d="M46.5,17.7V3.5h-5.1V0.3h13.9v3.3h-5.1v14.1H46.5z"/>
	<path fill="#FFFFFF" d="M66.6,9c0-5.2,3.8-9,9.1-9c5.3,0,9.1,3.8,9.1,9c0,5.2-3.8,9-9.1,9C70.4,18,66.6,14.2,66.6,9z M81,9
		c0-3.3-2.1-5.7-5.3-5.7S70.4,5.7,70.4,9c0,3.2,2.1,5.7,5.3,5.7S81,12.2,81,9z"/>
	<g>
		<rect x="102.7" y="5.9" fill="none" width="125.4" height="11.8"/>
		<text transform="matrix(1 0 0 1 102.7003 12.8011)" fill="#FFFFFF" font-family="'ProximaNova-Light'" font-size="10.4089">powered by ETR</text>
	</g>
</g>
</svg>
