<?xml version="1.0" encoding="utf-8"?>
<!-- Generator: Adobe Illustrator 18.1.1, SVG Export Plug-In . SVG Version: 6.00 Build 0)  -->
<svg version="1.1" id="Layer_1" xmlns="http://www.w3.org/2000/svg" xmlns:xlink="http://www.w3.org/1999/xlink" x="0px" y="0px"
	 viewBox="-84 1 200 30" enable-background="new -84 1 200 30" xml:space="preserve">
<g>
	<path fill="#FFFFFF" d="M-82.1,24.7V7.3h12.3v3.3h-8.6v3.7h8.4v3.3h-8.4v7.2L-82.1,24.7L-82.1,24.7z"/>
	<path fill="#3EB2CC" d="M-57,24.7V7.3h3.7v17.4H-57z"/>
	<path fill="#3EB2CC" d="M-35.5,24.7V10.5h-5.1V7.3h13.9v3.3h-5.1v14.1H-35.5z"/>
	<path fill="#FFFFFF" d="M-15.4,16c0-5.2,3.8-9,9.1-9s9.1,3.8,9.1,9s-3.8,9-9.1,9S-15.4,21.2-15.4,16z M-1,16c0-3.3-2.1-5.7-5.3-5.7
		s-5.3,2.5-5.3,5.7s2.1,5.7,5.3,5.7S-1,19.2-1,16z"/>
	<g>
		<g>
			<path fill="#797C7F" d="M21.6,19.8v-6.9h2.6c1.3,0,2.1,0.9,2.1,2s-0.8,2-2.1,2h-2v2.9H21.6z M25.6,14.9c0-0.9-0.6-1.5-1.5-1.5
				h-1.9v3H24C25,16.4,25.6,15.8,25.6,14.9z"/>
			<path fill="#797C7F" d="M28,16.3c0-2,1.3-3.6,3.4-3.6c2,0,3.4,1.6,3.4,3.6s-1.3,3.6-3.4,3.6C29.4,19.9,28,18.4,28,16.3z
				 M34.1,16.3c0-1.8-1.1-3-2.7-3c-1.7,0-2.7,1.3-2.7,3c0,1.7,1.1,3,2.7,3C33.1,19.4,34.1,18.1,34.1,16.3z"/>
			<path fill="#797C7F" d="M42.1,19.8l-1.7-6l-1.7,6h-0.7l-2-6.9h0.7l1.7,6.1l1.7-6.1h0.5l1.7,6.1l1.7-6.1h0.7l-2,6.9H42.1z"/>
			<path fill="#797C7F" d="M46.6,19.8v-6.9H51v0.5h-3.8V16h3.7v0.5h-3.7v2.7H51v0.5L46.6,19.8L46.6,19.8z"/>
			<path fill="#797C7F" d="M57.2,19.8l-1.9-2.9h-1.5v2.9h-0.6v-6.9h2.6c1.2,0,2.1,0.8,2.1,2c0,1.3-0.9,2-1.9,2l2,2.9H57.2z
				 M57.2,14.9c0-0.9-0.6-1.5-1.5-1.5h-1.9v3h1.9C56.7,16.4,57.2,15.8,57.2,14.9z"/>
			<path fill="#797C7F" d="M60.2,19.8v-6.9h4.4v0.5h-3.8V16h3.7v0.5h-3.7v2.7h3.8v0.5L60.2,19.8L60.2,19.8z"/>
			<path fill="#797C7F" d="M66.9,19.8v-6.9h2.2c2.2,0,3.5,1.6,3.5,3.5s-1.4,3.5-3.5,3.5h-2.2V19.8z M71.9,16.3c0-1.6-1-2.9-2.9-2.9
				h-1.6v5.9h1.6C70.9,19.3,71.9,18,71.9,16.3z"/>
			<path fill="#797C7F" d="M78.2,19.8v-6.9h2.9c1.2,0,1.9,0.7,1.9,1.8c0,0.9-0.6,1.5-1.2,1.6c0.7,0.1,1.4,0.9,1.4,1.7
				c0,1.2-0.7,1.9-2,1.9h-3V19.8z M82.4,14.7c0-0.7-0.5-1.3-1.4-1.3h-2.2V16h2.2C81.9,16,82.4,15.4,82.4,14.7z M82.6,17.9
				c0-0.7-0.5-1.4-1.5-1.4h-2.2v2.7h2.2C82.1,19.3,82.6,18.7,82.6,17.9z"/>
			<path fill="#797C7F" d="M87.2,19.8v-3l-2.8-4h0.7l2.3,3.4l2.3-3.4h0.7l-2.8,4v3H87.2z"/>
			<path fill="#797C7F" d="M95.9,19.8v-6.9h4.4v0.5h-3.8V16h3.7v0.5h-3.7v2.7h3.8v0.5L95.9,19.8L95.9,19.8z"/>
			<path fill="#797C7F" d="M104.2,19.8v-6.4h-2.3v-0.5h5.1v0.5h-2.3v6.4H104.2z"/>
			<path fill="#797C7F" d="M113.2,19.8l-1.9-2.9h-1.5v2.9h-0.6v-6.9h2.6c1.2,0,2.1,0.8,2.1,2c0,1.3-0.9,2-1.9,2l2,2.9H113.2z
				 M113.2,14.9c0-0.9-0.6-1.5-1.5-1.5h-1.9v3h1.9C112.6,16.4,113.2,15.8,113.2,14.9z"/>
		</g>
	</g>
</g>
</svg>
