<?xml version="1.0" encoding="utf-8"?>
<!-- Generator: Adobe Illustrator 19.1.0, SVG Export Plug-In . SVG Version: 6.00 Build 0)  -->
<svg version="1.1" id="Layer_1" xmlns="http://www.w3.org/2000/svg" xmlns:xlink="http://www.w3.org/1999/xlink" x="0px" y="0px"
	 viewBox="0 0 76.3 25" style="enable-background:new 0 0 76.3 25;" xml:space="preserve">
<style type="text/css">
	.st0{fill:#FFFFFF;}
	.st1{fill:#3EB2CC;}
	.st2{fill:#797C7F;}
</style>
<g>
	<path class="st0" d="M0,14.5V0.2h10.1v2.7H3v3h6.9v2.7H3v5.9H0z"/>
	<path class="st1" d="M20.5,14.5V0.2h3v14.2H20.5z"/>
	<path class="st1" d="M38,14.5V2.9h-4.2V0.2h11.4v2.7H41v11.6H38z"/>
	<path class="st0" d="M54.5,7.4c0-4.3,3.1-7.4,7.4-7.4c4.3,0,7.4,3.1,7.4,7.4c0,4.3-3.1,7.4-7.4,7.4C57.6,14.7,54.5,11.6,54.5,7.4z
		 M66.2,7.4c0-2.7-1.7-4.7-4.3-4.7s-4.3,2-4.3,4.7c0,2.6,1.7,4.7,4.3,4.7S66.2,10,66.2,7.4z"/>
	<g>
		<g>
			<path class="st2" d="M0.7,24.9v-5.7h2.1c1.1,0,1.7,0.8,1.7,1.7c0,0.9-0.6,1.7-1.7,1.7H1.2v2.4H0.7z M4,20.9
				c0-0.7-0.5-1.2-1.3-1.2H1.2v2.4h1.6C3.5,22.1,4,21.6,4,20.9z"/>
			<path class="st2" d="M6,22.1c0-1.7,1.1-2.9,2.8-2.9c1.7,0,2.8,1.3,2.8,2.9c0,1.7-1.1,2.9-2.8,2.9C7.1,25,6,23.7,6,22.1z M11,22.1
				c0-1.4-0.9-2.5-2.2-2.5c-1.4,0-2.2,1-2.2,2.5c0,1.4,0.9,2.5,2.2,2.5C10.1,24.6,11,23.5,11,22.1z"/>
			<path class="st2" d="M17.5,24.9L16.2,20l-1.4,4.9h-0.5l-1.6-5.7h0.5l1.4,5l1.4-5h0.4l1.4,5l1.4-5h0.5l-1.6,5.7H17.5z"/>
			<path class="st2" d="M21.2,24.9v-5.7h3.6v0.4h-3.1v2.1h3.1v0.4h-3.1v2.2h3.1v0.4H21.2z"/>
			<path class="st2" d="M30,24.9l-1.6-2.4h-1.3v2.4h-0.5v-5.7h2.1c1,0,1.7,0.6,1.7,1.7c0,1-0.7,1.6-1.6,1.6l1.6,2.4H30z M30,20.9
				c0-0.7-0.5-1.2-1.3-1.2h-1.6v2.4h1.6C29.5,22.1,30,21.6,30,20.9z"/>
			<path class="st2" d="M32.3,24.9v-5.7h3.6v0.4h-3.1v2.1h3.1v0.4h-3.1v2.2h3.1v0.4H32.3z"/>
			<path class="st2" d="M37.8,24.9v-5.7h1.8c1.8,0,2.9,1.3,2.9,2.8c0,1.6-1.1,2.8-2.9,2.8H37.8z M41.9,22.1c0-1.3-0.9-2.4-2.4-2.4
				h-1.3v4.8h1.3C41.1,24.5,41.9,23.4,41.9,22.1z"/>
			<path class="st2" d="M47.1,24.9v-5.7h2.3c1,0,1.6,0.6,1.6,1.4c0,0.7-0.5,1.2-1,1.3c0.6,0.1,1.1,0.7,1.1,1.4
				c0,0.9-0.6,1.5-1.6,1.5H47.1z M50.5,20.7c0-0.6-0.4-1.1-1.1-1.1h-1.8v2.1h1.8C50.2,21.8,50.5,21.3,50.5,20.7z M50.6,23.3
				c0-0.6-0.4-1.1-1.2-1.1h-1.8v2.2h1.8C50.2,24.5,50.6,24,50.6,23.3z"/>
			<path class="st2" d="M54.4,24.9v-2.4l-2.3-3.3h0.6l1.9,2.8l1.9-2.8h0.6l-2.3,3.3v2.4H54.4z"/>
			<path class="st2" d="M61.5,24.9v-5.7h3.6v0.4H62v2.1H65v0.4H62v2.2h3.1v0.4H61.5z"/>
			<path class="st2" d="M68.4,24.9v-5.2h-1.9v-0.4h4.2v0.4h-1.9v5.2H68.4z"/>
			<path class="st2" d="M75.7,24.9l-1.6-2.4h-1.3v2.4h-0.5v-5.7h2.1c1,0,1.7,0.6,1.7,1.7c0,1-0.7,1.6-1.6,1.6l1.6,2.4H75.7z
				 M75.7,20.9c0-0.7-0.5-1.2-1.3-1.2h-1.6v2.4h1.6C75.2,22.1,75.7,21.6,75.7,20.9z"/>
		</g>
	</g>
</g>
</svg>
