<?xml version="1.0" encoding="utf-8"?>
<!-- Generator: Adobe Illustrator 19.0.1, SVG Export Plug-In . SVG Version: 6.00 Build 0)  -->
<svg version="1.1" id="type" xmlns="http://www.w3.org/2000/svg" xmlns:xlink="http://www.w3.org/1999/xlink" x="0px" y="0px"
	 viewBox="0 0 117.7 25" style="enable-background:new 0 0 117.7 25;" xml:space="preserve">
<style type="text/css">
	.st0{fill:#FFFFFF;}
</style>
<path class="st0" d="M0,24.6V0.4h17.1v4.5h-12V10h11.7v4.5H5.1v10H0z"/>
<path class="st0" d="M34.9,24.6V0.4H40v24.2H34.9z"/>
<path class="st0" d="M64.5,24.6V4.9h-7.1V0.4h19.3v4.5h-7v19.6H64.5z"/>
<path class="st0" d="M92.5,12.5C92.5,5.2,97.8,0,105.1,0c7.3,0,12.6,5.2,12.6,12.5c0,7.3-5.3,12.5-12.6,12.5
	C97.8,25,92.5,19.8,92.5,12.5z M112.4,12.5c0-4.5-2.9-7.9-7.4-7.9c-4.5,0-7.3,3.4-7.3,7.9c0,4.5,2.9,7.9,7.3,7.9
	C109.5,20.4,112.4,17,112.4,12.5z"/>
</svg>
