<?xml version="1.0" encoding="utf-8"?>
<!-- Generator: Adobe Illustrator 19.0.1, SVG Export Plug-In . SVG Version: 6.00 Build 0)  -->
<svg version="1.1" id="Layer_1" xmlns="http://www.w3.org/2000/svg" xmlns:xlink="http://www.w3.org/1999/xlink" x="0px" y="0px"
	 viewBox="-649.5 289.7 196 18" style="enable-background:new -649.5 289.7 196 18;" xml:space="preserve">
<style type="text/css">
	.st0{fill:#FFFFFF;}
	.st1{fill:#34373D;}
</style>
<path class="st0" d="M-649.5,307.4V290h12.3v3.3h-8.6v3.7h8.4v3.3h-8.4v7.2H-649.5z"/>
<path class="st1" d="M-624.4,307.4V290h3.7v17.4H-624.4z"/>
<path class="st1" d="M-603,307.4v-14.1h-5.1V290h13.9v3.3h-5.1v14.1H-603z"/>
<path class="st0" d="M-582.9,298.7c0-5.2,3.8-9,9.1-9c5.3,0,9.1,3.8,9.1,9c0,5.2-3.8,9-9.1,9C-579.1,307.7-582.9,303.9-582.9,298.7z
	 M-568.5,298.7c0-3.3-2.1-5.7-5.3-5.7c-3.2,0-5.3,2.5-5.3,5.7c0,3.2,2.1,5.7,5.3,5.7C-570.6,304.4-568.5,301.9-568.5,298.7z"/>
<g>
	<g>
		<path class="st0" d="M-545.9,302.5v-6.9h2.6c1.3,0,2.1,0.9,2.1,2s-0.8,2-2.1,2h-2v2.9H-545.9z M-541.8,297.6
			c0-0.9-0.6-1.5-1.5-1.5h-1.9v3h1.9C-542.5,299.1-541.8,298.4-541.8,297.6z"/>
		<path class="st0" d="M-539.4,299c0-2,1.3-3.6,3.4-3.6c2,0,3.4,1.6,3.4,3.6s-1.3,3.6-3.4,3.6C-538.1,302.6-539.4,301-539.4,299z
			 M-533.3,299c0-1.8-1.1-3-2.7-3c-1.7,0-2.7,1.3-2.7,3c0,1.7,1.1,3,2.7,3C-534.4,302.1-533.3,300.8-533.3,299z"/>
		<path class="st0" d="M-525.3,302.5l-1.7-6l-1.7,6h-0.7l-2-6.9h0.7l1.7,6.1l1.7-6.1h0.5l1.7,6.1l1.7-6.1h0.7l-2,6.9H-525.3z"/>
		<path class="st0" d="M-520.9,302.5v-6.9h4.4v0.5h-3.8v2.6h3.7v0.5h-3.7v2.7h3.8v0.5H-520.9z"/>
		<path class="st0" d="M-510.1,302.5l-1.9-2.9h-1.5v2.9h-0.6v-6.9h2.6c1.2,0,2.1,0.8,2.1,2c0,1.3-0.9,2-1.9,2l2,2.9H-510.1z
			 M-510.1,297.6c0-0.9-0.6-1.5-1.5-1.5h-1.9v3h1.9C-510.7,299.1-510.1,298.4-510.1,297.6z"/>
		<path class="st0" d="M-507.2,302.5v-6.9h4.4v0.5h-3.8v2.6h3.7v0.5h-3.7v2.7h3.8v0.5H-507.2z"/>
		<path class="st0" d="M-500.6,302.5v-6.9h2.2c2.2,0,3.5,1.6,3.5,3.5c0,1.9-1.4,3.5-3.5,3.5H-500.6z M-495.5,299
			c0-1.6-1-2.9-2.9-2.9h-1.6v5.9h1.6C-496.5,301.9-495.5,300.6-495.5,299z"/>
		<path class="st0" d="M-489.1,302.5v-6.9h2.9c1.2,0,1.9,0.7,1.9,1.8c0,0.9-0.6,1.5-1.2,1.6c0.7,0.1,1.4,0.9,1.4,1.7
			c0,1.2-0.8,1.9-2,1.9H-489.1z M-485,297.4c0-0.7-0.5-1.3-1.4-1.3h-2.2v2.6h2.2C-485.5,298.7-485,298.1-485,297.4z M-484.9,300.6
			c0-0.7-0.5-1.4-1.5-1.4h-2.2v2.7h2.2C-485.4,301.9-484.9,301.4-484.9,300.6z"/>
		<path class="st0" d="M-480.2,302.5v-3l-2.8-4h0.7l2.3,3.4l2.3-3.4h0.7l-2.8,4v3H-480.2z"/>
		<path class="st0" d="M-471.6,302.5v-6.9h4.4v0.5h-3.8v2.6h3.7v0.5h-3.7v2.7h3.8v0.5H-471.6z"/>
		<path class="st0" d="M-463.2,302.5v-6.4h-2.3v-0.5h5.1v0.5h-2.3v6.4H-463.2z"/>
		<path class="st0" d="M-454.2,302.5l-1.9-2.9h-1.5v2.9h-0.6v-6.9h2.6c1.2,0,2.1,0.8,2.1,2c0,1.3-0.9,2-1.9,2l2,2.9H-454.2z
			 M-454.2,297.6c0-0.9-0.6-1.5-1.5-1.5h-1.9v3h1.9C-454.8,299.1-454.2,298.4-454.2,297.6z"/>
	</g>
</g>
</svg>
