<?xml version="1.0" encoding="utf-8"?>
<!-- Generator: Adobe Illustrator 18.1.1, SVG Export Plug-In . SVG Version: 6.00 Build 0)  -->
<svg version="1.1" id="Layer_1" xmlns="http://www.w3.org/2000/svg" xmlns:xlink="http://www.w3.org/1999/xlink" x="0px" y="0px"
	 viewBox="0 0 32 32" enable-background="new 0 0 32 32" xml:space="preserve">
<g>
	<g>
		<path fill="#FFFFFF" d="M16.1,15.7c-2.3,0-4.1-2.1-4.1-4.6c0-2.6,1.9-4.6,4.1-4.6c2.3,0,4.1,2.1,4.1,4.6
			C20.3,13.7,18.4,15.7,16.1,15.7L16.1,15.7z"/>
	</g>
	<g>
		<path fill="#FFFFFF" d="M22.4,26.4H9.7c-0.5,0-0.8-0.4-0.9-0.8l-0.3-4.1c-0.1-1.5,1.1-3.2,2.5-3.8c3.2-1.1,6.7-1.1,9.8,0
			c1.5,0.5,2.7,2.3,2.6,3.8l-0.3,4.1C23.2,26.1,22.8,26.4,22.4,26.4L22.4,26.4z"/>
	</g>
</g>
</svg>
